Coordinates
version=1
nRows=12
nColumns=28
inDegrees=yes

Units are S.I. units (second, meters, Newtons, ...)
Angles are in degrees.

endheader
time	pelvis_tilt	pelvis_list	pelvis_rotation	pelvis_tx	pelvis_ty	pelvis_tz	hip_flexion_r	hip_adduction_r	hip_rotation_r	knee_angle_r	ankle_angle_r	subtalar_angle_r	mtp_angle_r	hip_flexion_l	hip_adduction_l	hip_rotation_l	knee_angle_l	socket_flexion	socket_adduction	socket_rotation	socket_tx	socket_ty	socket_tz	foot_flex	lumbar_extension	lumbar_bending	lumbar_rotation
      0.00000000	      2.40051004	     -3.58540943	     -1.73712494	     -0.91468568	      0.99242294	      0.29892548	    -27.12381936	      6.85952573	     -7.62863783	     -4.44784710	     13.47351633	      5.99224097	     13.93882228	     28.50116058	     -1.10961747	      5.28770112	    -10.92470626	     -3.47116926	      0.00000000	      0.00000000	      0.00000000	     -0.00128885	      0.00000000	      1.03099182	    -14.23455816	      2.85551629	      4.82929968
      0.00416667	      2.34552233	     -3.64308792	     -1.75022939	     -0.90914969	      0.99165950	      0.29866602	    -27.17889815	      6.87342482	     -7.63318558	     -4.81486787	     13.28140058	      5.92196954	     13.91579458	     28.28504257	     -1.10388713	      5.41173580	    -10.88230735	     -3.47535621	      0.00000000	      0.00000000	      0.00000000	     -0.00177492	      0.00000000	      0.73137426	    -14.15494423	      2.88858106	      4.83563215
      0.00833333	      2.28651338	     -3.72115525	     -1.76695232	     -0.90341488	      0.99088394	      0.29835739	    -27.19833071	      6.89532905	     -7.62347714	     -5.26111860	     13.11572759	      5.83908354	     13.90888759	     28.05473500	     -1.11425030	      5.55096385	    -10.82139948	     -3.47107106	      0.00000000	      0.00000000	      0.00000000	     -0.00233143	      0.00000000	      0.40993868	    -14.08379548	      2.93544084	      4.85479014
      0.01250000	      2.22257855	     -3.81342427	     -1.78695926	     -0.89748787	      0.99008050	      0.29803655	    -27.19858838	      6.92483403	     -7.61436427	     -5.75990671	     12.95114063	      5.73522825	     13.91609721	     27.81271145	     -1.13867730	      5.69028616	    -10.73207680	     -3.42593246	      0.00000000	      0.00000000	      0.00000000	     -0.00301436	      0.00000000	      0.09600030	    -14.00109373	      3.01615493	      4.89395475
      0.01666667	      2.14604591	     -3.88756765	     -1.81046033	     -0.89135107	      0.98928336	      0.29775121	    -27.20345083	      6.93645030	     -7.56688570	     -6.23685651	     12.78234486	      5.65013693	     13.92379284	     27.56915778	     -1.14957312	      5.86065984	    -10.65288607	     -3.40593702	      0.00000000	      0.00000000	      0.00000000	     -0.00366403	      0.00000000	     -0.21587480	    -13.89632202	      3.05617718	      4.92638365
      0.02083333	      2.01360252	     -4.05347346	     -1.90356087	     -0.88513078	      0.98844909	      0.29742834	    -27.07166489	      6.99055869	     -7.46974633	     -6.87266149	     12.53789086	      5.43914338	     14.07989462	     27.27515149	     -1.28169284	      6.05583046	    -10.25120522	     -3.12620717	      0.00000000	      0.00000000	      0.00000000	     -0.00457236	      0.00000000	     -0.48827242	    -13.74690095	      3.22304156	      5.10876768
      0.02500000	      1.93029901	     -4.09476486	     -1.91899219	     -0.87868787	      0.98768041	      0.29715781	    -27.07225592	      6.97389274	     -7.38958223	     -7.35345781	     12.32136368	      5.35140314	     14.09468396	     27.02881937	     -1.25576072	      6.20721558	    -10.20566581	     -3.12799890	      0.00000000	      0.00000000	      0.00000000	     -0.00533308	      0.00000000	     -0.86248319	    -13.62682979	      3.20837640	      5.12263765
      0.02916667	      1.84133015	     -4.16587413	     -1.95868437	     -0.87226444	      0.98695412	      0.29683282	    -26.99417289	      6.95513487	     -7.34747344	     -7.97136359	     12.02241903	      5.18643537	     14.12499830	     26.77178503	     -1.26701006	      6.37798880	    -10.10654197	     -3.06230642	      0.00000000	      0.00000000	      0.00000000	     -0.00614888	      0.00000000	     -1.19754785	    -13.51474211	      3.25451066	      5.16017741
      0.03333333	      1.76165434	     -4.18517845	     -1.91931673	     -0.86544164	      0.98621518	      0.29648328	    -27.08267566	      6.95041723	     -7.23008684	     -8.29936774	     11.92007461	      5.16674977	     14.12734913	     26.53640960	     -1.18904806	      6.50043931	    -10.15166712	     -3.06878133	      0.00000000	      0.00000000	      0.00000000	     -0.00698319	      0.00000000	     -1.30481165	    -13.32332082	      3.24386842	      5.16268866
      0.03750000	      1.55726756	     -4.34335098	     -2.18764465	     -0.85903671	      0.98566731	      0.29647724	    -26.82976948	      6.94764558	     -6.61767667	     -8.96790550	     10.68570946	      3.90757141	     16.22669135	     26.16047316	     -1.42338020	      6.69531301	     -9.42861834	     -2.59757981	      0.00000000	      0.00000000	      0.00000000	     -0.00804636	      0.00000000	     -1.76241775	    -13.14159678	      3.32762223	      5.52334231
      0.04166667	      1.48453293	     -4.34087316	     -2.17486577	     -0.85244306	      0.98512388	      0.29612637	    -26.75734072	      6.88329559	     -6.51545819	     -9.57518796	     10.41237373	      3.85375650	     16.21454263	     25.91849317	     -1.33997738	      6.92058681	     -9.46620064	     -2.59885122	      0.00000000	      0.00000000	      0.00000000	     -0.00885221	      0.00000000	     -2.06267576	    -13.03478378	      3.27368111	      5.48490654
      0.04583333	      1.40381750	     -4.33804964	     -2.17244316	     -0.84585964	      0.98463912	      0.29579405	    -26.62976875	      6.80563804	     -6.44228502	    -10.26688566	     10.05386223	      3.74343629	     16.19399973	     25.68472632	     -1.26592251	      7.14651194	     -9.49212578	     -2.56543912	      0.00000000	      0.00000000	      0.00000000	     -0.00965628	      0.00000000	     -2.35184347	    -12.92624370	      3.22390960	      5.44746797
